<svg width="224" height="151" viewBox="0 0 224 151" fill="none" xmlns="http://www.w3.org/2000/svg">
<g clip-path="url(#clip0_237_22224)">
<path d="M216.469 100.359C215.985 100.359 215.498 100.409 215.011 100.507C214.684 100.572 214.317 100.65 213.929 100.727C213.621 100.613 213.303 100.526 212.986 100.455C213.562 99.6172 214.089 98.6712 214.512 97.6016C215.615 94.8162 216.935 89.6103 213.362 86.015C211.95 84.5961 210.072 83.8542 208.17 83.8542C206.961 83.8542 205.743 84.154 204.63 84.7692L202.065 86.1912C197.869 88.5129 194.916 93.5549 193.664 96.4639C193.263 96.2414 192.847 96.0528 192.418 95.9075C191.943 95.4469 191.373 95.0017 190.695 94.5875C189.967 94.1423 189.227 93.8023 188.478 93.5611C188.515 93.4096 188.549 93.2674 188.574 93.1376C188.737 92.442 188.793 91.7434 188.756 91.0602C189.936 88.2408 191.182 85.573 192.813 83.14C194.213 81.0503 194.447 78.3917 193.439 76.0886C193.143 75.4116 192.748 74.7933 192.276 74.2492C192.495 73.9895 192.699 73.7175 192.884 73.4269C193.282 72.8457 193.738 72.0883 194.055 71.0682C194.718 70.3293 195.239 69.4452 195.563 68.4528L197.12 63.6921C198.381 62.6534 199.306 61.1912 199.654 59.4754C200.672 54.4612 202.176 50.3218 204.26 46.8255C205.66 44.476 207.223 42.2286 208.931 40.0986C210.442 39.6318 211.814 38.6735 212.782 37.2793C213.251 36.6053 213.713 35.9252 214.176 35.242C215.162 33.7891 216.093 32.4196 217.064 31.1521C218.06 29.8537 219.179 28.5523 220.363 27.1735C220.903 26.5459 221.446 25.9122 221.991 25.2661C223.113 23.9739 223.795 22.286 223.795 20.4404C223.795 16.5422 220.77 13.355 216.944 13.1077C216.784 13.0984 216.624 13.0922 216.463 13.0922C216.226 13.0922 215.985 13.1046 215.748 13.1262C215.227 13.1757 214.724 13.2808 214.243 13.4354C214.213 13.4446 214.182 13.4508 214.151 13.4601C213.71 13.5776 212.973 13.7754 212.128 14.1897C211.163 14.6626 210.198 15.1449 209.24 15.6302C208.108 15.7384 206.727 16.1218 205.349 17.1357C205.022 17.0925 204.692 17.0677 204.362 17.0677C203.064 17.0677 201.769 17.4109 200.622 18.0972C200.616 18.0972 200.61 18.0972 200.604 18.0972C198.662 18.0972 196.765 18.8731 195.375 20.2921C194.16 19.4821 192.745 19.0586 191.311 19.0586C190.482 19.0586 189.65 19.2008 188.845 19.4883C188.574 19.4574 188.302 19.4419 188.028 19.4419C186.397 19.4419 184.772 19.986 183.437 21.0618C183.354 21.1298 183.271 21.1978 183.188 21.2658L183.104 21.3339C182.836 21.5317 182.583 21.7265 182.346 21.915C181.381 21.4637 180.323 21.2257 179.244 21.2257C178.655 21.2257 178.06 21.2968 177.471 21.4451C176.944 21.575 176.445 21.7636 175.97 22.0016C175.865 21.9985 175.763 21.9923 175.659 21.9923C174.632 21.9923 173.602 22.2087 172.643 22.6446C172.428 22.7435 172.236 22.8363 172.073 22.9197C171.993 22.9352 171.913 22.9476 171.833 22.963C171.031 22.6261 170.004 22.3417 168.796 22.3417C168.657 22.3417 168.494 22.3478 168.355 22.354C166.449 22.4653 164.976 22.6075 163.558 22.8085C161.532 23.099 159.497 23.4175 157.53 23.7235C156.365 23.9059 155.196 24.0883 154.031 24.2645C153.87 24.2892 153.707 24.3078 153.547 24.3325C152.236 22.4437 150.066 21.2009 147.606 21.1793C147.581 21.1793 147.553 21.1793 147.529 21.1793C147.445 21.1793 147.365 21.1793 147.282 21.1824C146.339 21.2133 145.441 21.4235 144.621 21.7821C144.421 21.8656 144.227 21.946 144.039 22.0294C143.891 22.0912 143.696 22.1747 143.601 22.2118C143.499 22.2365 143.283 22.2798 143.123 22.3138C142.395 22.4591 141.399 22.6632 140.286 23.1052C137.99 24.0172 135.797 25.2197 133.719 26.6881C133.636 24.0574 132.153 21.6708 129.835 20.4343L129.779 20.4003C129.289 20.1035 128.139 19.4079 126.514 19.1637C124.816 18.9071 123.123 18.6907 121.486 18.4805L121.295 18.4558C120.986 18.4156 120.656 18.3939 120.348 18.3939C119.522 18.3939 118.696 18.5361 117.909 18.7989C117.638 18.7835 117.37 18.7649 117.099 18.7495C116.562 18.4681 115.986 18.2486 115.372 18.1034C114.376 17.8684 113.242 17.7571 111.799 17.7571C108.565 17.7571 100.749 18.5083 97.3391 20.2395C95.3505 21.2504 93.9292 23.1145 93.476 25.3032C93.4359 25.5011 93.4051 25.6958 93.3835 25.8937C92.4493 25.9833 91.5151 26.2337 90.5902 26.648L90.5039 26.6851C89.0517 27.3342 87.6798 27.9494 86.2893 28.5399C84.5905 29.2602 83.0397 30.0299 81.6123 30.8615C81.6123 30.8213 81.6123 30.7781 81.6123 30.741C81.6123 30.6513 81.6123 30.5524 81.6123 30.4473C81.6215 30.302 81.6246 30.1536 81.6246 30.0052C81.6246 28.5894 81.2238 27.2662 80.5301 26.1441C81.2084 25.4949 81.8897 24.8457 82.568 24.1965L82.716 24.0574C84.9605 21.9583 86.1259 19.6243 86.1999 17.0925C86.2461 16.9503 86.2924 16.8081 86.3417 16.6628C86.7271 15.4849 87.1279 14.27 87.4917 12.9933C87.5873 12.6656 87.6613 12.3317 87.7137 11.9948C88.4012 11.8247 89.0024 11.5372 89.4988 11.1415C90.4545 10.9159 91.9498 10.3996 93.1707 9.12595C95.443 6.75176 95.0946 4.75472 94.6845 3.77475C94.0525 2.26615 92.4986 1.35419 90.8769 1.54895L89.6314 1.69734C87.7938 1.91683 86.0056 3.10083 84.8772 4.07153C83.5083 2.95244 81.7602 2.32798 79.8888 2.32798C78.7018 2.32798 77.4532 2.57529 76.3772 3.02355C75.6866 3.31104 75.0114 3.60782 74.3516 3.9015C73.1369 2.56293 71.4597 1.70352 69.6252 1.5304C69.394 1.50876 69.1597 1.4964 68.9284 1.4964C66.7919 1.4964 64.7478 2.43309 63.3481 4.08389C63.3142 4.12099 63.2772 4.16427 63.2371 4.20755C62.9442 4.52905 62.454 5.07005 61.9792 5.79652C59.9752 8.85391 57.9804 11.9113 55.9826 14.9718L55.6589 15.4664C55.2827 14.168 54.5459 12.9655 53.4884 12.0257C53.325 11.3579 53.0814 10.7118 52.7546 10.0966C51.6601 8.03469 49.764 6.53537 47.4147 5.87999C46.4373 5.60795 45.4631 5.32972 44.4888 5.0515C41.5507 4.21373 38.5138 3.34505 35.3999 2.62476C32.249 1.89828 29.0981 1.32637 26.0489 0.773013C24.9205 0.568981 23.7952 0.364949 22.6699 0.151643C22.155 0.0558099 21.6247 0.00634766 21.0882 0.00634766C20.5518 0.00634766 20.1232 0.0558099 19.8889 0.080541C16.9754 0.290756 14.4565 2.21669 13.4915 4.99276C12.5111 7.81829 13.3374 10.9591 15.5818 12.9315C15.7822 13.1293 16.2015 14.0753 16.479 14.7028L16.5068 14.7646C16.8182 15.4726 17.1265 16.2021 17.4379 16.975C16.8891 17.9055 16.5407 18.9689 16.4482 20.1066C16.4328 20.2797 16.4143 20.4528 16.3989 20.6259C16.3372 21.2164 16.2632 21.949 16.2601 22.7899C16.254 23.9461 16.2663 25.093 16.2786 26.1997C16.3002 28.2338 16.3249 30.1567 16.2293 32.0146C16.1676 33.2357 16.1461 34.4228 16.1214 35.5697C16.0721 38.1232 16.0258 40.5376 15.5418 42.6397C14.9375 45.2705 14.4904 47.8765 14.0557 50.396C13.7166 52.3745 13.3929 54.2448 13.0075 56.0873C12.8256 56.956 12.4988 57.9637 12.1565 59.0303C11.7958 60.1494 11.3858 61.4199 11.062 62.7801C9.70241 68.4838 7.79089 74.3852 5.21035 80.8215C5.00379 81.3378 4.87121 81.7891 4.79414 82.0581L4.76022 82.1693C4.34401 83.4986 4.32243 84.865 4.6369 86.1356L0.299002 100.897C-0.764662 104.52 1.08519 108.363 4.57524 109.782C5.47242 110.146 6.40659 110.32 7.32535 110.32C8.18861 110.32 9.04263 110.162 9.84423 109.868C10.5256 110.827 11.6355 111.414 12.8256 111.414C13.1092 111.414 13.3959 111.38 13.6827 111.312C15.252 110.935 16.3465 109.593 16.479 108.057C16.7658 107.772 17.0093 107.435 17.1912 107.058C17.6321 106.149 17.8325 105.336 17.8695 104.619C20.0277 103.757 21.7049 101.896 22.2783 99.5368C22.5219 98.5414 22.6144 97.6572 22.6822 97.0142C22.6976 96.8782 22.713 96.7051 22.7284 96.5845C23.2371 95.1377 23.7551 93.6879 24.2761 92.238L24.9976 94.6307L25.0037 94.6617C25.4138 96.399 26.1291 97.6912 26.9553 98.665C26.4682 99.5646 26.163 100.572 26.089 101.648L26.0458 102.26C25.978 103.243 26.1075 104.233 26.4281 105.163C26.4528 105.24 26.5885 105.596 26.7889 106.112C26.9091 106.418 27.0201 106.709 27.1218 106.978C27.1187 107.006 27.1187 107.033 27.1157 107.058C26.8598 107.732 26.684 108.459 26.5977 109.222C26.5915 109.275 26.5854 109.327 26.5823 109.38C26.3603 109.636 26.1445 109.924 25.941 110.239C25.5433 110.857 25.2596 111.497 25.0623 112.128C24.643 112.793 24.3008 113.528 24.0449 114.329C23.1323 117.182 23.9493 120.231 26.0797 122.172C27.9419 123.974 29.949 124.358 31.3272 124.358C31.5769 124.358 31.8235 124.345 32.0702 124.32C32.1781 124.327 32.2922 124.333 32.4155 124.336C32.6128 124.914 32.807 125.489 33.0013 126.058C33.3527 127.093 33.9324 128.039 34.697 128.822L35.7082 129.86C37.1203 131.31 39.0225 132.071 40.9525 132.071C42.0933 132.071 43.2433 131.805 44.3039 131.254C45.8793 130.441 47.054 129.112 47.7045 127.554C48.4444 127.996 49.246 128.345 50.0846 128.574C51.2223 128.886 52.4031 129.044 53.5932 129.044C55.4338 129.044 57.3422 128.661 59.2599 127.91C63.5485 126.228 66.7888 124.15 69.4649 121.381C70.0353 120.787 70.8492 120.138 71.7094 119.452C72.1965 119.062 72.7021 118.657 73.2232 118.218C74.3454 117.272 75.1193 116.054 75.5201 114.731C75.665 114.592 75.8099 114.447 75.9548 114.304C75.961 114.682 75.9733 115.059 75.998 115.43C76.1151 117.179 76.4512 118.728 76.7502 120.095C76.8119 120.373 76.8705 120.648 76.929 120.923C77.7584 124.905 79.5219 128.265 82.1703 130.911C84.3562 133.094 86.8751 135.273 90.4854 136.417C93.0474 137.23 95.6834 137.641 98.3164 137.641C101.393 137.641 104.51 137.082 107.578 135.975C108.95 135.48 110.239 134.828 111.444 134.024C111.802 134.989 112.363 135.879 113.103 136.627C114.481 138.022 116.356 138.804 118.304 138.804C118.492 141.141 119.787 143.277 121.831 144.507C122.765 145.07 123.789 145.407 124.834 145.515C125.71 146.149 126.903 146.779 128.429 146.993C128.824 147.633 129.32 148.217 129.906 148.718C131.244 149.862 132.933 150.474 134.66 150.474C134.934 150.474 135.209 150.458 135.483 150.427C138.088 150.202 139.719 148.922 140.635 147.877C141.11 147.336 141.732 146.591 142.306 145.667C142.682 145.061 143.021 144.476 143.351 143.911C143.807 143.128 144.236 142.39 144.658 141.778C145.996 139.827 147.365 137.855 148.728 135.907C149.406 135.684 150.051 135.363 150.646 134.949C151.894 136.173 153.571 136.952 155.421 137.038L157.083 137.116C157.197 137.122 157.311 137.125 157.425 137.125C158.295 137.125 159.158 136.97 159.975 136.667C160.234 136.572 160.527 136.451 162.071 135.808C164.535 134.782 166.591 133.938 168.235 133.27C169.243 133.755 170.322 133.99 171.389 133.99C171.663 133.99 171.937 133.969 172.212 133.938C172.563 134.126 172.942 134.303 173.356 134.463C174.077 134.745 175.199 135.1 176.445 135.208C176.787 135.239 177.157 135.249 177.727 135.249C178.655 135.249 180.151 135.215 181.458 135.184C181.988 136.123 182.962 137.657 184.757 138.76C185.811 139.41 187.017 139.818 188.509 140.009C190.171 141.311 192.85 142.683 195.335 142.683C197.586 142.683 199.688 141.688 201.094 139.988C201.788 139.27 203.678 137.242 203.493 134C203.465 133.533 203.394 133.069 203.283 132.621C203.286 132.581 203.289 132.54 203.292 132.5C203.419 130.853 203.715 126.995 200.419 124.361C200.074 124.082 199.725 123.851 199.377 123.656C205.259 121.479 211.284 119.254 216.251 117.424C217.277 117.046 218.202 116.444 218.967 115.658L221.717 112.836C223.964 110.527 224.445 107.021 222.907 104.189C221.606 101.797 219.118 100.356 216.476 100.356L216.469 100.359ZM83.1815 93.691C82.901 92.0247 82.0501 90.4883 80.7521 89.3599C82.5125 85.1 85.016 81.2296 87.3776 77.9063C89.2984 80.7318 91.9745 82.7598 95.0514 83.6996C93.9384 84.457 92.8563 85.2917 91.808 86.2036C90.8276 87.0599 89.915 87.9162 89.0332 88.7509C88.1854 89.2239 87.4208 89.8731 86.798 90.6799C86.3818 91.2209 85.9532 91.7867 85.5216 92.3802C84.6768 92.6708 83.8876 93.116 83.1815 93.6879V93.691ZM55.5633 92.3771C55.8315 91.088 55.7575 89.7185 55.2858 88.4047L55.2611 88.3212C55.1471 87.9595 54.9621 87.366 54.626 86.6766C55.4646 87.2732 56.5345 87.7802 57.891 88.0461C57.9835 88.618 58.1438 89.1744 58.3627 89.7C58.1007 90.2379 57.7985 90.8098 57.4871 91.4002C57.1172 92.102 56.7318 92.8346 56.3556 93.6106C56.0874 93.2056 55.8223 92.7945 55.5602 92.374L55.5633 92.3771ZM162.926 76.0824L165.407 77.3313C165.124 77.5539 164.855 77.795 164.609 78.0516C164.048 78.3082 163.521 78.6297 163.033 79.0069C162.922 79.0285 162.814 79.047 162.707 79.0749C162.075 78.8987 161.418 78.809 160.755 78.809C160.052 78.809 159.34 78.911 158.64 79.1212C157.539 79.452 156.661 79.9374 156.026 80.3392C155.165 80.5711 154.351 80.9482 153.615 81.4645C152.785 82.0457 151.999 82.6331 151.241 83.1988L151.105 83.3008C149.591 84.4322 148.185 85.5915 146.872 86.7972C146.49 86.4509 146.076 86.1387 145.629 85.8667C145.204 85.607 144.8 85.3968 144.421 85.2051C144.828 83.9964 145.235 82.7907 145.642 81.582C146.289 81.7644 146.952 81.8602 147.612 81.8602C149.092 81.8602 150.556 81.412 151.796 80.5433C152.255 80.2527 153.251 79.622 154.154 78.472C154.24 78.4349 154.327 78.3948 154.413 78.3515L154.444 78.3391C154.737 78.2062 155.344 77.928 156.01 77.4704L158.924 75.4672C159.494 75.0746 160.071 74.6789 160.647 74.2832C161.267 75.0128 162.031 75.6311 162.929 76.0824H162.926ZM44.939 61.0273C45.5833 60.4307 46.2215 59.8433 46.8566 59.259C46.9522 59.3209 47.0509 59.3796 47.1495 59.4383C48.0159 59.9361 48.9624 60.2421 49.9336 60.3565C50.0384 60.7707 50.1802 61.1726 50.3559 61.559C50.1802 63.4077 50.0261 65.3182 50.0137 67.3276C49.9952 70.0944 50.1679 72.7777 50.3375 75.3745C50.4022 76.3946 50.47 77.4117 50.5224 78.4319C50.5687 79.2913 50.7136 80.0518 50.9263 80.7257C48.9192 77.5384 47.5257 74.5336 46.6809 71.5751C45.8269 68.5858 45.2874 65.3955 44.7108 62.0197C44.6738 61.7971 44.6337 61.5745 44.5967 61.3488C44.7108 61.2437 44.8249 61.1355 44.9421 61.0304L44.939 61.0273ZM100.185 117.374C100.456 116.338 100.462 115.47 100.438 114.886C100.428 114.431 100.379 113.983 100.29 113.55C100.367 113.337 100.447 113.105 100.527 112.858C100.752 112.162 100.851 111.507 100.888 110.941C101.945 109.887 103 109.021 104.082 108.326C104.11 108.551 104.137 108.749 104.162 108.916C104.171 108.987 104.184 109.061 104.196 109.145L103.974 110.119C103.403 112.632 104.19 115.25 106.024 117.028C105.833 117.186 105.642 117.346 105.451 117.504C105.198 117.714 104.948 117.921 104.705 118.125C104.609 118.122 104.516 118.119 104.424 118.119C103.434 118.119 102.435 118.32 101.492 118.734C101.196 118.864 100.922 118.991 100.66 119.111C100.425 119.22 100.105 119.365 99.9998 119.402C99.9104 119.433 99.8209 119.464 99.7315 119.498C99.8209 118.901 99.9751 118.209 100.194 117.377L100.185 117.374Z" fill="#232728"/>
<path d="M77.9 62.9749C75.3966 66.1961 72.9116 69.4297 70.3804 72.6293C69.2181 74.0977 67.9756 75.5012 66.7547 76.9202C66.2922 77.455 65.7527 77.8043 64.9634 77.1366C64.2851 78.1598 63.613 79.1243 62.9933 80.1228C62.5679 80.8122 59.2258 81.2203 58.7603 80.5866C58.6431 80.4258 58.6338 80.1816 58.5907 79.9714C58.4828 79.4582 58.6893 78.8152 57.9525 78.5679C57.8631 78.537 57.8446 78.2309 57.8353 78.0485C57.6503 74.4903 57.3143 70.9321 57.339 67.377C57.3575 64.3011 57.786 61.2283 58.0265 58.2667C57.7891 58.3285 57.4099 58.4275 57.0306 58.5264C57.0245 58.1121 56.9135 57.6639 57.0306 57.2898C57.8631 54.656 58.7448 52.0407 59.6112 49.4161C59.6944 49.1626 59.8023 48.9153 59.9472 48.535C56.7501 50.0374 54.0031 52.121 50.7843 53.0608C50.2633 51.005 51.5705 50.1023 52.7452 49.0544C55.5816 46.5225 58.3595 43.9257 61.1435 41.3753C60.8506 41.0569 60.5145 40.8529 60.4837 40.6087C60.4529 40.3676 60.6687 40.0059 60.8845 39.8358C62.6974 38.4107 64.5195 36.9948 66.3693 35.6192C68.5922 33.9684 70.8459 32.3547 73.0935 30.7348C73.3864 30.5246 73.7132 30.3576 74.2959 30.0083C74.262 30.7595 74.3175 31.2696 74.2065 31.7426C73.4851 34.8216 72.7266 37.8944 71.9836 40.9704C71.925 41.2084 71.9004 41.4526 71.9959 41.7525C72.3505 41.0198 72.705 40.2872 73.0565 39.5576C73.1706 39.5885 73.2847 39.6194 73.3987 39.6503C73.3556 39.9626 73.3525 40.2841 73.2662 40.5809C72.1563 44.4636 70.923 48.3155 69.958 52.2354C69.3352 54.7642 69.1133 57.3888 68.697 59.9701C68.4997 61.1912 68.2716 62.4092 68.0558 63.6272C68.1328 63.6581 68.213 63.6921 68.2901 63.723C68.6631 63.114 69.0053 62.4865 69.4216 61.9084C69.5726 61.6951 69.8933 61.6054 70.1368 61.457C70.217 61.7383 70.3835 62.0258 70.3588 62.2979C70.3157 62.7523 70.1461 63.1975 70.1399 63.723C70.4791 63.2871 70.8089 62.842 71.1604 62.4123C75.5137 57.1229 79.1333 51.3204 82.7744 45.5456C83.5883 44.2534 83.6592 42.4913 84.1186 40.7663C83.3386 40.7663 82.8114 40.8127 82.2996 40.7478C82.0345 40.7138 81.7015 40.5407 81.5782 40.3274C81.5011 40.1975 81.7385 39.8544 81.871 39.6318C81.9481 39.5051 82.1023 39.4247 82.2225 39.3258C84.3159 37.6224 86.6652 36.3611 89.141 35.31C90.627 34.6794 92.1007 34.0178 93.5714 33.3594C94.3113 33.0286 94.6412 33.2233 94.5117 34.0951C95.7665 33.6685 96.9936 33.2728 98.2052 32.8307C98.7694 32.6236 99.1641 32.636 99.5649 33.1801C99.9194 33.6623 99.8238 33.9344 99.5926 34.463C98.865 36.1107 98.421 37.8852 97.6626 39.5143C95.1807 44.847 92.5878 50.1271 90.0813 55.4505C88.5428 58.7181 87.0938 62.0258 85.5954 65.3089C85.4166 65.6984 85.1915 66.0663 84.8339 66.3909C84.7291 64.7803 85.8729 63.5159 85.9592 61.9393C84.06 65.5902 82.1609 69.2412 80.2586 72.8921C80.3079 72.9385 80.3573 72.9848 80.4066 73.0343C80.8536 72.6479 81.2822 72.2336 81.7601 71.8874C81.942 71.7545 82.2349 71.773 82.4784 71.7235C82.4291 71.943 82.4445 72.212 82.3212 72.3789C79.0562 76.8738 76.044 81.514 73.9259 86.6828C73.5714 87.5453 73.1552 88.383 72.7297 89.2115C72.6033 89.4588 72.3505 89.6443 72.1532 89.8576C72.0638 89.8051 71.9774 89.7494 71.888 89.6969L72.2333 88.55C72.184 88.5222 72.1347 88.4912 72.0853 88.4634C70.6548 90.7789 69.2242 93.0974 67.7937 95.4129C67.7104 95.3727 67.6241 95.3356 67.5409 95.2954C67.396 94.198 68.4442 93.4838 68.6415 92.2906C67.6919 93.5271 66.7917 94.5875 66.0209 95.7344C65.0312 97.2059 64.1557 98.7547 63.2061 100.254C62.9995 100.582 62.7251 100.891 62.423 101.132C62.1979 101.311 61.8773 101.37 61.5998 101.481C61.5998 101.163 61.535 100.829 61.5998 100.523C62.2873 97.3697 64.1988 94.7606 65.4444 91.8547C66.8318 88.6242 68.2469 85.406 69.6466 82.1817C69.7299 81.99 69.7823 81.7891 69.6775 81.4769C68.2253 83.2884 66.7701 85.1 65.318 86.9115C65.2532 86.8992 65.1916 86.8868 65.1268 86.8744C65.1916 86.5158 65.2008 86.1325 65.3365 85.8048C65.5862 85.2051 65.9469 84.6517 66.2028 84.0551C69.2242 77.0129 73.5961 70.7436 77.4407 64.1713C77.6534 63.8096 77.8415 63.4355 78.0419 63.0646C77.9956 63.0367 77.9494 63.0089 77.9031 62.978L77.9 62.9749Z" fill="white"/>
<path d="M13.6086 100.795C13.2356 101.648 13.4236 102.47 13.6364 103.311C13.658 103.398 13.6795 103.509 13.7443 103.562" fill="white"/>
<path d="M85.9563 8.50766C86.4835 8.43656 86.8288 8.37782 86.8412 8.04704C86.8535 7.71626 86.3355 7.86156 86.7117 7.38239C87.0878 6.90013 88.8174 5.49355 90.063 5.34516L91.3085 5.19678C91.3085 5.19678 91.475 5.59557 90.5285 6.58172C89.582 7.56788 88.1484 7.63589 87.9449 7.70699C87.7414 7.77809 87.5102 7.79046 87.2974 8.1707C87.0847 8.55094 85.9563 8.50766 85.9563 8.50766Z" fill="white"/>
<path d="M199.503 103.101C200.582 102.48 201.279 102.05 201.014 101.323C200.752 100.597 199.759 101.37 200.148 99.9972C200.536 98.6246 203.043 94.0462 205.608 92.6242L208.173 91.2021C208.173 91.2021 208.882 91.9163 207.704 94.8871C206.526 97.8579 203.48 99.2707 203.101 99.6107C202.722 99.9477 202.235 100.176 202.108 101.184C201.982 102.192 199.503 103.101 199.503 103.101Z" fill="#FF3D46"/>
<path d="M85.3767 108.681C86.6655 103.63 89.3817 99.3545 92.6004 95.1718C92.5233 95.4346 92.4894 95.5552 92.4802 95.5954C93.8275 94.3403 95.1809 93.0017 96.6146 91.7528C100.065 88.7448 104.023 86.7323 108.543 85.9409C109.94 85.6967 111.37 85.6071 112.788 85.5545C113.408 85.5329 114.037 85.7864 114.78 85.9409C112.631 86.5623 110.433 86.5283 108.398 87.5268C113.59 86.8405 118.615 87.3723 123.564 88.2811C122.035 90.8501 120.552 93.3448 119.069 95.8365C119.053 95.8365 119.038 95.8334 119.026 95.8303C119.257 95.1811 119.488 94.5319 119.719 93.8827C119.67 93.8642 119.624 93.8456 119.574 93.8271C118.637 96.0498 117.7 98.2725 116.763 100.498C118.495 98.7857 119.503 96.6093 120.7 94.5628C120.758 94.5938 120.817 94.6278 120.875 94.6587C120.798 94.8503 120.74 95.0544 120.638 95.2337C118.131 99.7224 115.625 104.208 113.109 108.69C112.594 109.612 112.045 110.514 111.506 111.42C111.423 111.562 111.299 111.68 111.111 111.751C111.41 110.437 111.709 109.12 112.005 107.816C111.876 107.936 111.74 108.069 111.469 108.323C111.407 107.809 111.324 107.432 111.327 107.058C111.333 106.202 111.071 105.445 110.599 104.746C110.004 103.862 109.403 102.981 108.824 102.09C108.685 101.877 108.611 101.624 108.577 101.546C108.743 101.135 108.993 100.832 108.947 100.579C108.836 99.945 108.503 99.3452 107.825 99.2185C107.276 99.1165 106.678 99.1814 106.12 99.2803C105.904 99.3174 105.741 99.6482 105.549 99.8429C105.445 99.948 105.318 100.143 105.229 100.13C103.234 99.812 101.828 101.073 100.336 102.013C97.9372 103.522 95.8716 105.435 94.0094 107.571C93.0105 108.718 92.474 109.652 92.1934 110.904C92.4648 110.669 92.7237 110.415 93.0135 110.208C93.1523 110.109 93.3496 110.094 93.5222 110.045C93.5346 110.236 93.6024 110.443 93.55 110.613C93.328 111.3 93.0382 111.961 92.8316 112.651C92.3445 114.289 91.9591 115.952 92.0331 117.708C92.3198 116.812 92.6066 115.915 92.8902 115.019C92.9611 115.028 93.0351 115.037 93.106 115.046C93.106 115.204 93.1338 115.368 93.0937 115.513C92.5079 117.742 92.0948 119.974 92.3815 122.308C92.7392 125.205 95.1624 126.648 97.0986 127.174C99.004 127.69 100.687 126.948 102.402 126.349C103.037 126.126 103.641 125.814 104.415 125.477C104.143 126.271 103.484 126.367 103.034 126.685C102.565 127.019 102.053 127.294 101.591 127.65C103.533 127.106 105.537 126.692 107.193 125.495C108.682 124.42 110.063 123.192 111.494 122.033C111.558 121.98 111.719 121.931 111.731 121.949C111.799 122.058 111.904 122.206 111.876 122.305C111.756 122.707 111.648 123.13 111.435 123.486C109.918 126.024 107.914 128.061 105.093 129.078C101.011 130.55 96.8581 130.754 92.6867 129.431C90.5286 128.747 88.8976 127.285 87.3376 125.724C85.5895 123.974 84.5967 121.826 84.0973 119.436C83.789 117.949 83.4036 116.462 83.3049 114.957C83.2093 113.535 83.3172 112.066 83.5577 110.66C83.9894 108.131 84.4457 105.581 85.5556 103.237C86.1352 102.01 86.8782 100.86 87.5657 99.6884C87.7075 99.4472 87.908 99.1474 88.2533 99.4998C86.3633 102.285 85.3922 105.336 85.3798 108.694L85.3767 108.681Z" fill="#FF3D46"/>
<path d="M117.808 119.835C118.005 118.972 119.044 118.713 119.365 117.797C118.316 118.515 117.361 119.158 116.414 119.819C115.939 120.15 115.495 120.527 115.021 120.858C114.869 120.963 114.604 121.09 114.503 121.028C114.364 120.941 114.253 120.676 114.268 120.502C114.327 119.829 114.441 119.161 114.54 118.493C114.564 118.335 114.632 118.184 114.654 118.026C114.845 116.697 115.021 115.365 115.224 114.035C115.255 113.825 115.391 113.633 115.48 113.432C115.606 113.63 115.745 113.822 115.853 114.029C115.893 114.109 115.868 114.224 115.875 114.323C115.927 114.338 115.979 114.354 116.032 114.369C116.22 113.76 116.439 113.157 116.587 112.539C117.385 109.219 118.144 105.886 118.964 102.572C119.343 101.033 119.821 99.5181 120.277 98.0002C120.364 97.7158 120.555 97.4654 120.7 97.1995C120.783 97.2212 120.866 97.2428 120.949 97.2645C120.906 97.7313 120.86 98.195 120.817 98.6618C120.844 98.671 120.872 98.6772 120.9 98.6865C121.23 97.5674 121.569 96.4514 121.893 95.3323C122.435 93.4435 122.941 91.5454 123.524 89.6658C123.681 89.1619 123.971 88.6147 124.726 88.8621C124.809 88.8899 125.013 88.7477 125.068 88.6364C125.349 88.0676 125.589 87.4771 125.864 86.9021C125.925 86.7754 126.039 86.5961 126.15 86.5806C126.798 86.4848 127.452 86.4168 128.102 86.3673C128.626 86.3271 128.762 86.6084 128.654 87.0907C128.561 87.5018 128.494 87.9223 128.447 88.3427C128.429 88.5065 128.466 88.794 128.552 88.828C128.709 88.8868 128.972 88.862 129.101 88.7569C129.505 88.4323 129.943 88.1078 130.226 87.6873C130.778 86.865 131.228 85.9716 131.737 85.1184C131.82 84.9793 131.993 84.8896 132.125 84.7783C132.166 84.9638 132.292 85.1895 132.227 85.3286C131.62 86.6548 130.908 87.9346 130.362 89.2856C129.002 92.6459 127.717 96.0372 126.397 99.413C126.332 99.5799 126.231 99.7345 126.144 99.8952C126.08 99.8705 126.012 99.8458 125.947 99.821C126.181 98.8534 126.416 97.8827 126.65 96.9151C124.368 101.926 122.574 107.114 120.835 112.323C120.878 112.366 120.918 112.409 120.962 112.449C121.625 112.001 122.318 111.59 122.941 111.089C123.724 110.462 124.439 109.754 125.198 109.092C125.321 108.984 125.503 108.944 125.66 108.873C125.731 109.03 125.805 109.188 125.87 109.33C126.357 109.089 126.884 108.854 127.378 108.563C127.522 108.477 127.578 108.23 127.652 108.047C128.975 104.764 130.186 101.432 131.944 98.3464C132.307 97.7065 132.754 97.113 133.165 96.4978C133.238 96.5442 133.309 96.5905 133.383 96.6338C132.671 98.0064 131.956 99.3759 131.244 100.748C131.299 100.779 131.352 100.807 131.407 100.838C133.158 97.5798 134.947 94.3462 137.247 91.2486C137.327 91.5454 137.354 91.6505 137.391 91.7834C137.598 91.5299 137.792 91.2888 138.079 90.9302C138.335 91.4434 138.551 91.87 138.776 92.3213C138.85 91.9596 138.927 91.6041 139.001 91.2486C139.05 91.2486 139.099 91.2486 139.146 91.2486C139.18 91.6196 139.214 91.9905 139.251 92.4048C139.466 91.9473 139.67 91.5176 139.846 91.1528C140.585 91.5145 141.245 91.7865 141.85 92.1544C142.068 92.2873 142.294 92.6459 142.278 92.887C142.155 94.9954 141.964 97.0975 141.819 99.2028C141.686 101.129 141.575 103.055 141.473 104.984C141.359 107.151 141.258 109.318 141.174 111.488C141.107 113.275 141.085 115.062 141.014 116.848C140.977 117.751 140.885 118.654 140.804 119.556C140.792 119.705 140.715 119.847 140.641 120.079C140.478 119.897 140.376 119.782 140.274 119.671C139.294 120.416 136.223 121.838 135.221 121.94C135.569 121.578 135.807 121.334 136.047 121.087C136.023 121.05 136.001 121.013 135.976 120.975C135.424 121.356 134.869 121.736 134.324 122.122C134.225 122.19 134.163 122.317 134.062 122.37C133.79 122.503 133.504 122.608 133.223 122.725C133.189 122.447 133.097 122.159 133.134 121.89C133.205 121.353 133.297 120.812 133.47 120.302C133.578 119.98 133.929 119.736 134.028 119.414C134.321 118.434 134.58 117.439 134.786 116.437C135.224 114.289 135.625 112.131 136.029 109.976C136.087 109.667 136.069 109.346 136.093 108.928C135.674 109.095 135.344 109.219 135.021 109.361C133.605 109.986 132.196 110.622 130.775 111.234C130.402 111.395 130.155 111.602 130.035 112.013C129.678 113.244 129.283 114.462 128.999 115.726C129.468 114.87 129.937 114.014 130.402 113.157C130.454 113.173 130.507 113.191 130.556 113.207C130.538 113.337 130.541 113.479 130.495 113.596C129.653 115.658 128.762 117.702 127.973 119.785C127.541 120.923 127.226 122.11 126.94 123.294C126.665 124.429 126.499 125.588 126.28 126.735C126.258 126.84 126.215 126.942 126.049 127.044C126.021 126.827 125.993 126.608 125.962 126.354C125.796 126.361 125.623 126.367 125.42 126.376C125.324 126.63 125.216 126.886 125.133 127.149C124.954 127.702 124.809 128.265 124.606 128.809C124.544 128.976 124.338 129.09 124.196 129.229C124.14 129.053 124.029 128.874 124.042 128.704C124.088 127.922 124.168 127.14 124.159 126.336C123.977 126.979 123.783 127.619 123.613 128.265C123.481 128.772 123.37 129.282 123.265 129.795C123.148 130.358 122.744 130.531 122.241 130.642C121.156 130.886 120.08 131.18 118.998 131.434C118.779 131.486 118.545 131.458 118.316 131.468C118.326 131.254 118.286 131.019 118.356 130.828C118.733 129.82 119.136 128.821 119.463 127.786C119.247 128.154 119.032 128.522 118.813 128.889C118.76 128.871 118.708 128.852 118.656 128.834C118.702 128.62 118.717 128.395 118.8 128.2C120.681 123.838 122.568 119.479 124.452 115.117C124.458 115.105 124.433 115.083 124.375 114.975C124.054 115.207 123.721 115.411 123.425 115.661C122.115 116.762 120.826 117.887 119.506 118.975C119.038 119.362 118.501 119.671 117.999 120.014C117.94 119.955 117.879 119.897 117.82 119.835H117.808ZM131.604 107.185C131.666 107.225 131.725 107.268 131.786 107.308C133.072 106.588 134.358 105.865 135.64 105.144C135.668 105.194 135.693 105.243 135.72 105.293C135.649 105.389 135.579 105.484 135.464 105.639C136.248 105.518 136.047 104.943 136.056 104.545C136.087 102.999 136.087 101.453 136.072 99.9107C136.063 99.0018 135.998 98.096 135.958 97.1872C135.89 97.1748 135.822 97.1624 135.754 97.1501C134.37 100.495 132.989 103.84 131.604 107.185Z" fill="#FF3D46"/>
<path d="M136.63 124.589C135.763 125.718 134.959 126.766 134.222 127.727C137.61 124.744 141.066 121.699 144.522 118.654C144.498 118.617 144.47 118.583 144.445 118.546C144.094 118.824 143.755 119.117 143.388 119.374C143.289 119.445 143.11 119.402 142.969 119.411C143.018 119.281 143.03 119.108 143.12 119.025C145.827 116.579 148.709 114.363 151.712 112.298C152.986 111.423 154.234 110.511 155.628 109.522C154.721 109.339 153.935 109.182 153.149 109.024C153.161 109.083 153.174 109.145 153.183 109.203C152.979 109.284 152.767 109.454 152.579 109.426C151.925 109.336 151.281 109.169 150.63 109.049C147.763 108.514 144.877 108.298 141.945 108.65C141.893 108.409 141.849 108.202 141.794 107.948C142.031 107.849 142.256 107.754 142.565 107.624C142.022 107.379 142.124 107.07 142.34 106.715C142.546 106.375 142.722 106.01 142.888 105.648C142.944 105.525 142.935 105.373 142.969 105.163C142.787 105.29 142.657 105.379 142.531 105.469C142.503 105.447 142.472 105.426 142.444 105.404C142.824 104.764 143.2 104.124 143.579 103.484C143.533 103.46 143.487 103.432 143.443 103.407C143.147 103.71 142.851 104.013 142.552 104.316C142.491 104.27 142.429 104.223 142.367 104.177C142.441 103.985 142.491 103.781 142.589 103.608C144.233 100.792 145.879 97.9755 147.541 95.1685C147.636 95.0077 147.877 94.9304 148.05 94.8161C148.037 95.0108 148.077 95.2241 148.006 95.3941C147.831 95.8362 147.609 96.2597 147.507 96.7729C147.624 96.64 147.747 96.5132 147.861 96.3772C150.097 93.6599 152.668 91.295 155.48 89.1959C156.254 88.6178 157.024 88.0397 157.817 87.4864C157.955 87.3874 158.181 87.4122 158.384 87.4709C159.235 87.1896 159.867 86.4291 160.755 86.1602C160.795 86.222 160.835 86.2869 160.875 86.3487C160.144 86.9114 159.414 87.4709 158.683 88.0335C158.698 88.0614 158.717 88.0923 158.732 88.1201C159.475 87.7955 160.212 87.4524 160.968 87.1556C161.375 86.9979 161.809 86.8835 162.241 86.8217C162.802 86.7383 163.033 86.9763 162.975 87.5451C162.916 88.1046 162.811 88.6611 162.833 89.2546C163.16 88.4602 163.465 87.6564 163.832 86.8805C163.958 86.6146 164.328 86.1942 164.433 86.2374C164.895 86.4198 164.63 86.8248 164.51 87.1092C163.792 88.7909 163.098 90.485 162.303 92.1296C160.921 94.9799 159.472 97.8023 158.039 100.625C157.857 100.98 157.573 101.286 157.339 101.614C157.253 101.568 157.163 101.518 157.077 101.472C157.327 100.925 157.579 100.374 157.897 99.6819C157.468 99.8705 157.157 100.006 156.664 100.226C157.219 98.9307 157.727 97.7467 158.218 96.5998C154.875 97.2923 148.592 102.081 146.153 105.846C147.951 105.877 149.742 105.825 151.518 105.961C153.272 106.097 155.073 105.824 156.787 106.369L156.796 106.536C156.278 106.638 155.76 106.736 155.242 106.838C155.233 106.869 155.224 106.9 155.215 106.928C155.729 107.08 156.247 107.228 156.759 107.386C157.253 107.537 157.767 107.645 158.224 107.871C158.458 107.985 158.726 108.298 158.748 108.542C158.856 109.822 158.896 111.105 158.945 112.391C158.948 112.499 158.825 112.61 158.658 112.901C158.517 112.344 158.418 111.964 158.298 111.494C156.685 114.44 155.165 117.34 153.346 120.057C153.269 120.02 153.195 119.98 153.118 119.943C153.365 119.427 153.608 118.907 153.861 118.397C154.117 117.881 154.385 117.371 154.549 116.79C153.978 117.553 153.362 118.286 152.847 119.083C150.954 121.999 149.095 124.939 147.217 127.866C146.983 128.234 146.718 128.583 146.465 128.939L146.206 128.818C146.277 128.556 146.301 128.268 146.422 128.03C147.196 126.497 147.988 124.976 148.774 123.452C148.823 123.356 148.86 123.251 148.823 123.099C148.12 124.073 147.408 125.037 146.721 126.021C144.014 129.888 141.291 133.746 138.625 137.641C137.706 138.98 136.947 140.43 136.09 141.811C135.816 142.253 135.483 142.658 135.138 143.051C135.051 143.147 134.826 143.122 134.666 143.15C134.669 143.008 134.635 142.85 134.684 142.726C134.835 142.355 135.02 142 135.208 141.61C134.675 141.295 134.092 141.026 133.608 140.63C133.408 140.47 133.328 140.034 133.359 139.74C133.43 139.128 133.611 138.525 133.759 137.867C132.576 138.133 131.53 138.581 130.565 139.236C129.526 139.944 129.412 139.919 128.598 139.085C128.62 138.643 128.638 138.256 128.657 137.848C128.46 137.867 128.407 137.854 128.386 137.876C127.926 138.389 127.461 138.466 126.822 138.105C126.271 137.793 126.166 137.876 125.611 138.228C125.75 136.411 134.934 124.954 136.639 124.599L136.63 124.589Z" fill="#FF3D46"/>
<path d="M180.083 92.9242C180.484 92.4203 180.884 91.9164 181.285 91.4125C181.335 91.431 181.387 91.4496 181.436 91.4712C181.393 91.6382 181.378 91.8236 181.298 91.972C178.658 96.8131 176.775 101.991 174.65 107.061C173.544 109.704 172.375 112.326 171.219 114.947C171.136 115.133 170.911 115.253 170.75 115.405C170.646 115.21 170.454 115.012 170.454 114.817C170.467 113.939 170.544 113.061 170.581 112.184C170.593 111.899 170.547 111.612 170.528 111.327C170.461 111.29 170.39 111.253 170.322 111.216C170.013 111.497 169.699 111.769 169.4 112.06C169.274 112.184 169.193 112.36 169.064 112.483C168.947 112.595 168.793 112.669 168.657 112.759C168.608 112.564 168.472 112.341 168.524 112.18C168.703 111.612 168.974 111.071 169.156 110.502C169.631 109.015 170.072 107.519 170.541 106.032C171.083 104.313 171.641 102.603 172.199 100.891C172.233 100.786 172.329 100.702 172.446 100.532C172.511 100.721 172.548 100.832 172.606 100.999C172.955 99.886 173.288 98.8133 173.664 97.6107C172.56 98.0899 171.555 98.5165 170.565 98.974C170.461 99.0235 170.374 99.2677 170.393 99.4068C170.457 99.92 170.245 100.133 169.754 100.223C169.126 100.334 168.515 100.551 167.886 100.665C167.186 100.792 166.903 101.243 166.776 101.877C166.277 104.381 165.774 106.885 165.256 109.386C165.151 109.899 164.985 110.403 164.769 110.891C164.455 110.149 164.926 109.506 164.976 108.817C165.028 108.097 165.096 107.376 165.096 106.641C164.711 108.063 164.239 109.466 163.958 110.907C163.517 113.154 163.212 115.426 162.833 117.683C162.808 117.825 162.654 117.943 162.559 118.073C162.472 117.924 162.352 117.782 162.312 117.621C162.266 117.436 162.29 117.229 162.232 116.997C162.025 117.797 161.597 118.255 160.746 118.369C160.471 118.407 160.219 118.867 160.018 119.176C159.778 119.55 159.602 119.965 159.398 120.363C159.324 120.357 159.25 120.348 159.176 120.342C159.109 120.051 159.065 119.754 158.967 119.473C158.813 119.037 158.603 118.623 158.458 118.187C158.403 118.017 158.415 117.797 158.47 117.624C159.099 115.661 159.744 113.705 160.382 111.748C160.419 111.636 160.419 111.516 160.385 111.38C160.104 112.069 159.827 112.755 159.546 113.445C159.479 113.417 159.408 113.389 159.34 113.358C159.614 109.955 160.601 106.733 161.84 103.568C161.587 103.858 161.338 104.149 161.085 104.437C161.02 104.393 160.958 104.35 160.894 104.307C160.962 104.066 160.995 103.809 161.106 103.589C162.364 101.089 163.08 98.3897 163.918 95.7404C164.991 92.343 166.012 88.9301 167.069 85.5265C167.226 85.0226 167.479 84.5929 168.139 84.6702C168.373 84.698 168.617 84.6609 168.851 84.63C169.369 84.5589 169.705 84.327 169.662 83.7273C169.631 83.3099 169.869 83.0626 170.251 82.9204C171.037 82.6298 171.817 82.3238 172.733 81.9775L172.582 82.9761C172.625 83.0101 172.665 83.0441 172.708 83.0781C173.174 82.6855 173.642 82.296 174.105 81.9003C174.287 81.7426 174.444 81.5478 174.641 81.418C174.835 81.2913 175.07 81.2294 175.289 81.1398C175.249 81.3593 175.252 81.5973 175.162 81.7921C174.681 82.8462 174.166 83.8849 173.682 84.936C172.221 88.1109 170.753 91.2857 169.329 94.476C168.888 95.4622 168.568 96.504 168.201 97.5242C168.148 97.6664 168.151 97.8271 168.114 98.0651C169.095 97.5211 170.124 97.2057 170.945 96.5256C170.923 96.4762 170.901 96.4267 170.88 96.3773C170.599 96.4514 170.316 96.5256 170.035 96.5998C170.017 96.5627 169.998 96.5256 169.983 96.4885C170.075 96.4113 170.155 96.3123 170.26 96.2629C171.589 95.6137 172.912 94.9459 174.259 94.3369C174.922 94.0371 174.962 93.4281 175.144 92.8778C175.717 91.1559 176.281 89.4278 176.802 87.675C176.494 88.1727 176.183 88.6673 175.8 89.2794C175.643 88.1418 180.487 77.1797 181.27 76.7686C181.22 76.9509 181.183 77.087 181.146 77.2261C181.174 77.2446 181.202 77.2817 181.233 77.2817C181.59 77.2817 181.948 77.257 182.306 77.2694C182.787 77.2848 183.15 77.3961 183.379 77.9402C183.511 78.2555 183.955 78.5399 184.313 78.6388C185.037 78.8336 185.796 78.8892 186.727 79.0315C183.767 83.449 181.997 88.1943 180.083 92.9118V92.9242Z" fill="#FF3D46"/>
<path d="M155.754 129.709C155.754 129.709 159.5 128.305 160.32 127.461C161.137 126.614 162.703 125.248 162.703 125.248C162.703 125.248 177.576 118.15 180.191 117.39C182.805 116.629 183.523 116.144 183.523 116.144L186.591 114.997C186.591 114.997 184.772 116.286 183.579 117.012C182.386 117.739 177.817 120.333 177.817 120.333C177.817 120.333 194.203 113.782 194.293 113.603C194.382 113.423 203.005 109.766 205.802 109.204C208.595 108.638 211.394 107.627 211.394 107.627C211.394 107.627 211.453 108.749 211.237 108.786C211.021 108.823 216.463 107.714 216.463 107.714L213.713 110.536C213.713 110.536 173.553 125.338 172.563 125.854C171.573 126.37 171.382 126.654 171.382 126.654C171.382 126.654 172.07 125.455 172.264 125.276C172.458 125.096 171.271 124.824 171.231 124.398C171.191 123.971 158.113 129.533 157.413 129.792L155.751 129.715L155.754 129.709Z" fill="#FF3D46"/>
<path d="M170.716 119.177C171.157 119.013 173.22 118.104 175.033 117.288C176.845 116.472 176.324 116.481 176.849 116.475C177.373 116.468 179.278 115.77 180.209 115.152C181.14 114.533 183.446 113.529 184.242 113.476C185.037 113.423 186.708 111.003 186.915 109.244C187.121 107.488 186.394 107.735 186.394 107.735C186.394 107.735 189.434 105.095 189.455 104.885L189.477 104.675L190.433 104.978C190.433 104.978 190.393 106.31 190.411 106.663C190.43 107.015 190.824 107.964 190.824 107.964C190.824 107.964 192.591 109.086 193.436 107.924C194.277 106.758 194.382 105.055 193.725 104.805C193.069 104.554 191.558 105.636 191.558 105.636L191.145 105.982C191.145 105.982 191.475 104.656 191.564 104.511C191.654 104.366 190.522 103.009 190.09 102.873C189.659 102.737 188.318 102.727 188.318 102.727C188.318 102.727 187.803 102.712 187.479 102.783C187.155 102.854 185.117 104.162 184.334 105.649C183.554 107.136 183.98 103.367 185.327 102.492C186.674 101.617 187.454 101.475 187.454 101.342C187.454 101.209 186.474 100.467 185.783 100.464C185.093 100.464 184.729 100.65 184.522 100.758C184.316 100.866 184.026 101.512 183.702 101.713C183.379 101.914 182.29 103.305 182.343 103.973C182.392 104.641 182.922 104.332 182.91 105.194C182.898 106.057 182.632 107.451 183.018 107.874C183.403 108.301 183.597 108.32 183.739 108.579C183.881 108.839 184.587 109.627 184.834 109.664C185.08 109.701 184.211 111.507 183.903 111.8C183.594 112.094 176.981 115.498 176.5 115.655C176.019 115.813 175.692 115.841 175.68 115.968C175.668 116.094 170.719 119.17 170.719 119.17L170.716 119.177Z" fill="#FF3D46"/>
<path d="M7.32837 102.971C9.35087 96.0869 11.3734 89.2023 13.3959 82.3147C13.365 82.29 13.3311 82.2653 13.3003 82.2436C12.8378 82.9732 12.3785 83.7028 11.916 84.4323C11.8605 84.4107 11.8081 84.3859 11.7526 84.3643C11.8358 84.0954 11.9037 83.8171 12.0085 83.5544C14.4996 77.3376 16.6331 71.0064 18.187 64.4805C18.7389 62.1588 19.6884 59.9269 20.1787 57.5929C21.1036 53.1753 21.6709 48.6804 22.6821 44.2844C23.5886 40.3336 23.345 36.3488 23.5454 32.3826C23.7057 29.2046 23.567 26.0112 23.5855 22.8271C23.5886 22.1191 23.6934 21.4112 23.752 20.7002C23.8444 20.694 23.9369 20.6847 24.0294 20.6786C24.1188 21.4823 24.2514 22.283 24.2915 23.0898C24.3932 25.1487 24.4364 27.2107 24.5536 29.2664C24.5751 29.6529 24.831 30.0238 24.979 30.401C25.1085 30.3793 25.238 30.3577 25.3675 30.3361C25.5679 29.0562 25.8176 27.7795 25.9533 26.4904C26.129 24.8117 26.2801 23.1269 26.314 21.4421C26.3325 20.5333 26.2246 19.5687 25.9224 18.7186C25.0962 16.3784 24.2113 14.0506 23.2062 11.7784C22.5249 10.2358 21.8343 8.64686 20.413 7.39794C20.7151 7.38248 21.0265 7.30829 21.3163 7.36084C25.4692 8.14296 29.6437 8.82616 33.7596 9.77522C37.6906 10.6841 41.5629 11.8619 45.4507 12.947C46.2739 13.1757 46.5822 13.7507 46.2955 14.6132C45.3705 17.3862 44.461 20.1654 43.5484 22.9445C43.4714 23.1764 43.4344 23.4175 43.3573 23.7421C44.2976 23.3959 44.9636 22.9322 45.4168 22.0913C46.166 20.6971 47.0046 19.3523 47.8278 17.9983C47.9757 17.751 48.2224 17.5655 48.4259 17.3522C48.4906 17.4048 48.5584 17.4573 48.6232 17.5099C45.8916 23.0311 42.8825 28.4349 40.5085 34.1076C38.1284 39.7926 36.3803 45.7467 34.5397 51.6667C38.2178 47.5984 41.899 43.5301 45.5771 39.4618C45.6295 39.4959 45.6788 39.5268 45.7313 39.5608C45.2904 40.3058 44.8464 41.0508 44.4055 41.7989L44.6768 41.9844C47.0971 38.6766 49.5204 35.3719 51.9406 32.0641C51.8851 32.0178 51.8296 31.9714 51.7741 31.925C51.324 32.3269 50.8708 32.7288 50.248 33.2822C50.6519 31.5417 56.9876 24.0265 58.637 23.13C58.7419 23.2908 58.8467 23.4484 58.9731 23.6401C59.081 23.5443 59.1642 23.501 59.2074 23.4299C62.1733 18.8917 65.13 14.3505 68.1021 9.8185C68.3364 9.46299 68.6509 9.16003 68.9284 8.83234C69.1627 9.24968 69.4987 9.63919 69.6159 10.0874C69.918 11.256 70.1277 12.4462 70.3959 13.7415C71.9344 13.0428 73.3927 12.3844 74.851 11.7259C76.2939 11.0736 77.7306 10.4028 79.192 9.79376C79.5188 9.65774 80.1292 9.58973 80.271 9.76594C80.493 10.0411 80.5609 10.5883 80.456 10.9499C79.9936 12.5637 79.4448 14.1526 78.933 15.7509C78.8775 15.9271 78.7788 16.128 78.8158 16.2919C79.0995 17.5253 78.2485 18.1653 77.5148 18.8701C72.44 23.7328 67.3437 28.5709 62.2967 33.4646C59.0009 36.661 55.7759 39.9317 52.5233 43.1715C52.3969 43.2983 52.2921 43.4467 52.1657 43.5981C52.4863 43.7074 53.3896 43.1385 54.8757 41.8917C55.742 41.1652 56.6022 40.4325 57.4686 39.703L57.6505 39.9194C56.482 40.9488 55.2919 41.9535 54.1512 43.0169C53.2324 43.8733 52.3938 44.8192 51.4812 45.6817C50.9848 46.1485 50.4021 46.5257 49.8626 46.9492C45.4075 50.4548 41.3348 54.4025 37.1541 58.2173C36.9106 58.4399 36.7379 58.9407 36.7996 59.2622C37.6906 64.0477 38.3134 68.9166 39.6422 73.5784C40.9062 78.0053 43.049 82.1478 45.6326 86.012C46.4465 87.23 47.2142 88.479 47.9696 89.7341C48.1731 90.0741 48.2594 90.4884 48.3981 90.8686C48.3056 90.9212 48.2131 90.9737 48.1176 91.0263C46.9676 89.7155 45.8176 88.4079 44.6676 87.0971C44.609 87.1342 44.5474 87.1713 44.4888 87.2084C44.9204 88.1265 45.3027 89.0725 45.7868 89.9597C48.0127 94.0466 50.2017 98.155 53.3126 101.673C53.5099 101.896 53.553 102.26 53.6671 102.557H52.6435C53.1461 103.16 53.6702 103.843 54.2621 104.458C54.441 104.644 54.8109 104.727 55.0884 104.721C56.7995 104.684 58.5631 104.316 60.2125 104.61C63.2987 105.163 65.7621 103.781 68.2439 102.468C70.806 101.11 72.9549 99.2061 74.4379 96.6464C74.6876 96.2167 74.8633 95.7499 75.11 95.3171C75.2394 95.0945 75.4429 94.9152 75.6156 94.7143C75.7297 94.773 75.8468 94.8318 75.9609 94.8905C75.7327 95.5675 75.6125 96.3125 75.2549 96.9123C73.6794 99.5616 72.033 102.168 70.4823 104.678C71.6939 103.605 73.0412 102.412 74.3885 101.222C73.9137 102.421 72.9086 103.157 72.0145 103.992C71.1112 104.836 70.2233 105.692 69.4278 106.653C72.1132 105.012 74.7708 103.355 76.6453 100.696C76.7533 100.786 76.8612 100.879 76.9691 100.968C76.7255 101.45 76.5436 101.979 76.226 102.409C74.9188 104.18 73.6979 106.038 72.2088 107.639C70.3312 109.658 68.2193 111.454 66.2091 113.349C66.1074 113.445 66.0179 113.553 66.0179 113.794C66.8072 113.324 67.5965 112.855 68.3888 112.388C68.4289 112.453 68.4721 112.518 68.5122 112.583C67.0662 113.801 65.5062 114.907 64.1989 116.261C62.0346 118.503 59.4232 119.946 56.5899 121.059C55.1162 121.637 53.5777 121.906 52.0177 121.48C51.5799 121.359 51.0897 121.05 50.8399 120.679C48.6509 117.451 46.5082 114.19 44.3562 110.935C44.014 110.415 43.7057 109.874 43.2031 109.423C44.2144 111.763 45.2225 114.107 46.2338 116.447C46.1228 116.502 46.0149 116.558 45.9039 116.617C44.3254 113.485 42.7468 110.354 41.1683 107.225C41.085 107.256 41.0018 107.287 40.9186 107.318C41.418 109.055 41.9175 110.796 42.42 112.533C42.3337 112.57 42.2474 112.61 42.161 112.647C41.9298 112.233 41.6739 111.831 41.4704 111.405C38.8005 105.831 36.1367 100.254 33.4668 94.6772C33.3866 94.5134 33.2941 94.2537 33.1677 94.229C32.2397 94.0496 32.2458 93.2521 32.0455 92.5936C30.1925 86.4386 28.3303 80.2868 26.499 74.1256C26.0211 72.5181 25.6296 70.8828 25.1239 68.9692C24.3655 70.8766 23.6502 72.5521 23.0243 74.2586C20.5702 80.9514 18.113 87.6443 15.7421 94.3681C15.3752 95.413 15.4523 96.6155 15.1656 97.784C14.552 96.0189 13.9385 94.2568 13.2386 92.2443C10.7136 95.7499 9.17822 99.4348 7.33145 102.959L7.32837 102.971Z" fill="white"/>
<path d="M34.1542 109.457C34.1881 109.735 34.2097 112.032 34.6413 112.409C35.0729 112.787 35.2024 112.821 35.2302 113.006C35.2579 113.192 35.1716 113.253 35.2394 113.507C35.3072 113.76 35.3936 114.518 35.4028 114.79C35.4121 115.062 35.3597 114.991 35.224 115.13C35.0883 115.269 34.9619 115.034 34.8232 114.994C34.6845 114.954 34.3484 115.043 34.2621 114.731C34.1758 114.419 34.2282 113.074 34.0586 113.195C33.889 113.315 33.4327 113.423 33.1953 113.856C32.9579 114.286 32.7329 114.236 32.6373 114.521C32.5417 114.805 32.776 114.747 32.8593 114.917C32.9425 115.087 32.9795 115.764 32.9209 116.308C32.8624 116.852 33.0196 116.802 32.9117 116.932C32.8038 117.062 32.2673 116.954 31.9251 116.941C31.5829 116.929 31.3825 116.96 31.3393 117.009C31.2962 117.059 31.1112 116.818 31.0094 116.744C30.9077 116.669 31.3948 115.723 31.5829 115.736C31.7709 115.748 32.1902 115.866 32.1902 115.866V115.495C32.1902 115.495 31.9898 115.516 31.9713 115.383C31.9528 115.25 31.959 114.447 32.0947 114.236C32.2303 114.026 32.5849 113.918 32.8038 113.764C33.0227 113.609 33.4913 113.281 33.6485 113.12C33.8058 112.96 33.8613 112.567 33.8674 112.477C33.8736 112.388 33.8551 110.31 33.8829 110.032C33.9137 109.757 34.1326 109.272 34.1542 109.457Z" fill="white"/>
<path d="M33.3989 102.162C33.3989 102.162 33.8798 103.556 34.1851 103.862C34.4872 104.171 34.9774 104.758 34.9774 104.758C34.9774 104.758 37.4531 110.301 37.709 111.272C37.9649 112.243 38.1376 112.512 38.1376 112.512L38.5322 113.652C38.5322 113.652 38.0759 112.972 37.82 112.524C37.5641 112.079 36.6515 110.372 36.6515 110.372C36.6515 110.372 38.9114 116.469 38.9762 116.503C39.0409 116.537 40.3081 119.749 40.49 120.781C40.6719 121.814 41.0203 122.855 41.0203 122.855C41.0203 122.855 40.6071 122.868 40.5979 122.787C40.5886 122.707 40.9463 124.723 40.9463 124.723L39.935 123.684C39.935 123.684 34.8541 108.756 34.6722 108.385C34.4903 108.017 34.3885 107.943 34.3885 107.943C34.3885 107.943 34.8233 108.205 34.8849 108.279C34.9466 108.354 35.0607 107.918 35.2148 107.905C35.369 107.893 33.4451 103.027 33.3557 102.764L33.3989 102.152V102.162Z" fill="white"/>
<path d="M175.492 127.186C176.244 127.078 182.472 126.877 183.471 125.672C184.47 124.469 184.547 124.114 185.056 124.033C185.565 123.953 185.734 124.178 186.415 123.981C187.097 123.783 189.15 123.498 189.887 123.458C190.624 123.418 190.436 123.563 190.821 123.928C191.207 124.293 190.578 124.645 190.476 125.025C190.374 125.409 190.639 126.321 189.801 126.571C188.962 126.825 185.312 126.772 185.645 127.223C185.978 127.675 186.308 128.918 187.491 129.533C188.675 130.148 188.549 130.766 189.332 131.014C190.115 131.261 189.939 130.618 190.393 130.383C190.846 130.148 192.68 130.003 194.157 130.126C195.634 130.25 195.492 129.823 195.85 130.111C196.207 130.395 195.951 131.87 195.933 132.797C195.914 133.725 196.019 134.275 196.155 134.386C196.291 134.498 195.646 135.02 195.452 135.304C195.258 135.589 192.665 134.318 192.686 133.808C192.708 133.298 193.004 132.148 193.004 132.148L191.996 132.176C191.996 132.176 192.067 132.717 191.703 132.773C191.339 132.831 189.159 132.865 188.583 132.51C188.006 132.154 187.689 131.19 187.254 130.605C186.819 130.018 185.907 128.763 185.454 128.343C185 127.922 183.94 127.795 183.699 127.786C183.459 127.78 177.82 127.962 177.068 127.897C176.315 127.832 174.993 127.261 175.489 127.189L175.492 127.186Z" fill="#FF3D46"/>
<path d="M192.119 38.4693C191.669 40.0459 191.216 41.6225 190.766 43.1991C194.163 37.3316 197.043 31.1952 200.598 25.4452C200.699 25.4947 200.804 25.5442 200.906 25.5936C200.582 26.5334 200.262 27.4732 199.864 28.6325C201.479 27.1208 202.919 25.7698 204.362 24.4158C204.476 24.5085 204.587 24.6013 204.698 24.694C204.399 25.2628 204.1 25.8286 203.801 26.3974C203.844 26.4778 203.89 26.5581 203.934 26.6385C205.648 25.6276 207.368 24.6229 209.076 23.6028C209.511 23.3431 209.776 22.5362 210.479 23.204C210.507 23.2287 210.642 23.1483 210.722 23.1081C212.261 22.3353 213.796 21.5563 215.341 20.7989C215.659 20.6443 216.022 20.5794 216.466 20.4434C214.666 22.5826 212.878 24.5642 211.259 26.6756C209.674 28.7407 208.262 30.9386 206.773 33.0779C206.684 33.0253 206.594 32.9697 206.508 32.9171L207.8 30.3636C203.995 34.2062 200.727 38.4322 197.971 43.0569C195.211 47.6878 193.544 52.736 192.474 58.013L192.094 57.9667V55.9665C192.045 55.9542 191.996 55.9449 191.947 55.9325C190.83 59.3423 189.714 62.7521 188.598 66.165C188.527 66.1589 188.46 66.1527 188.389 66.1465C188.287 65.8126 188.185 65.4757 188.031 64.9687C187.692 66.3536 187.399 67.5964 187.072 68.8329C187.01 69.0709 186.822 69.275 186.693 69.4945C186.52 69.309 186.308 69.1513 186.184 68.938C185.904 68.4589 185.722 67.9148 185.398 67.4727C184.889 66.7833 184.402 66.873 184.045 67.6458C183.903 67.955 183.724 68.2455 183.443 68.7649V49.7868C183.218 51.2058 182.999 52.6031 182.777 53.9973C182.645 53.9788 182.512 53.9602 182.38 53.9448C182.836 49.0542 183.292 44.1636 183.672 40.1263C181.267 48.0557 178.615 56.795 175.967 65.5344C175.807 65.4973 175.646 65.4602 175.486 65.42C175.443 63.4786 176.275 61.6609 176.556 59.5371C175.406 61.6578 175.215 63.8032 175.122 65.8961C175.03 67.9921 175.316 70.1035 175.44 72.2242C175.353 72.1902 175.153 72.116 174.934 72.0356C175.116 72.8084 176.072 73.2691 175.72 74.3078C172.498 72.6848 169.357 71.102 166.215 69.5223C166.243 69.4265 166.268 69.3306 166.295 69.2348C166.563 69.2595 166.832 69.2843 167.078 69.309C167.969 65.556 168.87 61.7753 169.767 57.9945C169.906 58.0161 170.044 58.0378 170.18 58.0594C170.057 59.1198 169.933 60.1801 169.81 61.2405C171.015 58.3036 171.382 55.1164 172.458 52.1518C172.591 52.1827 172.723 52.2136 172.856 52.2445C172.662 53.277 172.468 54.3096 172.276 55.3421L172.344 55.3606C174.265 49.7838 176.189 44.2069 178.11 38.63C178.054 38.6084 177.996 38.5867 177.94 38.562C177.576 39.2947 177.212 40.0304 176.849 40.7631L176.553 40.7074C176.584 40.321 176.568 39.9253 176.654 39.5513C177.422 36.3022 178.208 33.0593 178.985 29.8134C179.072 29.4579 179.136 29.0962 179.244 28.5799C179.46 28.8396 179.605 28.9756 179.704 29.1394C180.326 30.1905 181.523 30.679 182.682 30.3698C184.621 29.8536 185.925 28.3666 187.467 27.2413C187.661 27.0991 187.84 26.9415 188.028 26.79C188.099 26.8364 188.167 26.8858 188.238 26.9322C187.951 27.4361 187.664 27.94 187.334 28.5181C189.021 28.5181 189.943 26.9878 191.311 26.4067C191.373 26.4623 191.438 26.521 191.499 26.5767C191.29 26.9909 191.117 27.4299 190.858 27.8101C190.365 28.5304 189.89 29.2816 189.286 29.8999C187.692 31.5384 187.276 33.5663 187.236 35.7272C187.155 39.8542 187.1 43.9812 187.044 48.1082C187.038 48.4792 187.137 48.8502 187.155 49.2211C187.177 49.6725 187.162 50.1238 186.964 50.603C186.899 50.47 186.838 50.3371 186.752 50.1578V52.4856C186.804 52.4918 186.853 52.498 186.906 52.5042C188.45 47.7744 189.995 43.0476 191.543 38.3178C191.734 38.3672 191.928 38.4198 192.119 38.4693Z" fill="white"/>
<path d="M135.964 85.7274C135.726 82.6143 136.46 79.6126 137.074 76.5954C136.972 76.617 136.873 76.6418 136.772 76.6634C136.627 76.3481 136.303 75.9895 136.365 75.7205C136.944 73.1639 137.589 70.6259 138.119 68.0199C135.918 71.2597 133.534 74.283 130.137 76.277C130.057 76.1966 129.976 76.1131 129.896 76.0328C131.117 74.9229 132.341 73.8162 133.562 72.7064C133.51 72.6291 133.457 72.5549 133.408 72.4777C133.204 72.6044 132.998 72.725 132.797 72.8579C130.618 74.3201 128.398 75.6989 125.75 76.1317C125.201 76.2213 124.624 76.243 124.072 76.1842C122.602 76.0297 122.145 75.5134 122.038 74.0512C122.016 73.776 121.994 73.4638 121.853 73.2443C121.729 73.0557 121.427 72.8579 121.23 72.8826C121.054 72.9043 120.814 73.2041 120.773 73.4113C120.699 73.7977 120.752 74.2057 120.545 74.6509C120.431 74.2645 120.268 73.8842 120.209 73.4855C119.984 71.9799 119.765 70.4713 119.59 68.9566C119.238 65.927 119.401 62.9067 119.839 59.8957C119.96 59.0827 120.117 59.0116 120.703 59.4289C121.803 53.7871 123.665 48.4266 126.215 43.1002C126.375 43.4279 126.449 43.5793 126.425 43.5268C128.133 41.1773 129.896 38.7444 131.672 36.3207C131.725 36.2496 131.891 36.2589 132.036 36.2249C131.5 37.4955 130.982 38.7135 130.467 39.9346C130.513 39.9593 130.559 39.984 130.605 40.0088C131.373 39.0721 132.11 38.1107 132.915 37.2049C135.733 34.0393 139.019 31.5044 142.978 29.9339C143.832 29.5939 144.785 29.5166 145.676 29.2569C146.28 29.0807 146.856 28.7963 147.525 28.5273C147.458 29.3002 147.402 30.206 147.3 31.1087C146.758 35.9034 146.215 40.6982 145.642 45.4898C145.497 46.6893 145.259 47.8795 145.025 49.0666C144.988 49.2582 144.732 49.4035 144.578 49.5735C144.408 49.4159 144.196 49.2891 144.082 49.0975C143.425 48.0124 142.787 46.9149 142.148 45.8175C141.979 45.5238 141.816 45.227 141.649 44.9334C141.492 45.0199 141.335 45.1065 141.177 45.193C141.088 45.8948 140.921 46.5965 140.934 47.2952C140.943 47.932 140.619 48.0557 140.138 48.0526C135.585 47.9969 132.366 50.5102 129.459 53.6264C129.418 53.6665 129.406 53.7346 129.348 53.8613C130.507 54.1364 130.618 52.7082 131.475 52.5876C130.571 53.954 129.65 55.305 128.771 56.6868C127.245 59.0857 125.839 61.562 125.367 64.4091C125.182 65.5251 125.225 66.7246 125.413 67.8468C125.66 69.3183 126.739 69.8438 128.05 69.1297C129.381 68.4063 130.673 67.5562 131.848 66.5947C133.988 64.845 135.68 62.6749 137.253 60.3594C136.96 60.1183 136.722 59.8462 136.426 59.6978C135.178 59.0641 135.051 57.6452 134.311 56.6559C133.947 56.1675 134.681 56.0129 135.094 55.9604C136.731 55.7563 138.375 55.6048 140.009 55.3823C141.273 55.2091 142.525 54.9495 143.783 54.7547C144.273 54.6774 144.775 54.6372 145.272 54.6249C146.912 54.5785 147.343 55.1411 146.859 56.7456C145.996 59.5989 145.127 62.4523 144.226 65.2964C143.73 66.8637 143.197 68.4218 142.608 69.9582C142.488 70.2735 142.022 70.4435 141.751 70.7156C141.584 70.8825 141.442 71.102 141.368 71.3246C139.858 75.7885 138.362 80.2618 136.852 84.7258C136.716 85.1245 136.482 85.4924 136.291 85.8727C136.183 85.8294 136.075 85.783 135.967 85.7397L135.964 85.7274Z" fill="white"/>
<path d="M153.833 62.6068C155.076 61.8556 156.343 61.3857 157.194 60.5108C158.822 58.8415 161.162 58.4149 162.87 56.761C163.003 57.0516 163.08 57.2247 163.203 57.4967C163.755 57.1752 164.285 56.829 164.849 56.5508C165.105 56.424 165.426 56.4333 165.719 56.3807C165.753 56.6528 165.79 56.9248 165.839 57.3205C167.078 56.9866 168.308 56.659 169.539 56.3282C169.603 56.3931 169.665 56.4611 169.73 56.526C168.944 57.6946 167.738 58.52 166.829 59.6514C167.205 59.5927 167.522 59.5432 167.837 59.4938C167.877 59.5525 167.917 59.6143 167.954 59.6731C167.122 60.4645 166.372 61.3733 165.441 62.0256C160.943 65.1943 156.395 68.2919 151.863 71.4111C151.657 71.5533 151.413 71.6429 151.188 71.7542C151.123 71.7017 151.059 71.6522 150.994 71.5997C151.145 71.0989 151.296 70.6011 151.447 70.1003C151.379 70.0509 151.311 69.9983 151.241 69.9489C150.649 70.6691 150.017 71.3616 149.471 72.1159C149.07 72.6662 148.817 73.3246 148.426 73.8842C148.238 74.1531 147.883 74.3077 147.606 74.5148C147.507 74.1902 147.294 73.8564 147.325 73.5441C147.451 72.3076 147.664 71.0803 147.818 69.8468C147.88 69.3677 147.877 68.8761 147.905 68.3939L147.609 68.261C146.912 69.3708 146.218 70.4806 145.521 71.5935C145.407 71.5409 145.293 71.4915 145.179 71.4389C146.89 65.42 148.601 59.4041 150.359 53.2337C149.499 53.5428 148.786 53.7963 148.077 54.0529L147.828 53.92C148.438 52.5938 149.052 51.2676 149.68 49.9043C149.909 49.9568 150.269 50.1052 150.627 50.099C150.834 50.0959 151.179 49.8795 151.225 49.7002C152.024 46.4419 152.782 43.1743 153.368 39.7243C151.98 40.4941 150.593 41.2607 148.965 42.1634C149.27 40.627 150.664 39.2915 148.531 38.3548C149.2 37.99 149.751 37.7211 150.272 37.3996C151.093 36.8926 151.08 36.5216 150.343 35.925C149.986 35.6375 149.443 35.2232 149.465 34.8987C149.502 34.3515 149.98 33.962 150.609 33.7517C151.287 33.5261 151.885 33.0685 152.52 32.713C152.489 32.6234 152.455 32.5306 152.424 32.441C151.934 32.4966 151.444 32.5523 150.957 32.6079C150.929 32.543 150.901 32.4812 150.877 32.4163C151.13 32.2802 151.37 32.07 151.638 32.0237C152.797 31.8351 153.966 31.7083 155.128 31.5321C158.285 31.053 161.436 30.5398 164.596 30.0854C165.981 29.8875 167.377 29.7731 168.774 29.6928C169.052 29.6773 169.347 29.9772 169.634 30.1317C169.924 30.2863 170.232 30.5954 170.504 30.5645C171.734 30.4347 172.961 30.2492 174.173 29.9957C174.697 29.8875 175.175 29.5629 175.665 29.3403C175.816 30.3543 171.49 41.5606 170.624 42.0769C170.541 41.236 170.485 40.4508 170.374 39.6687C170.306 39.1802 170.186 38.698 170.041 38.225C169.776 37.3625 169.246 37.0101 168.271 36.939C165.447 36.738 162.935 37.8788 160.305 38.5372C159.845 38.6516 159.38 38.7351 158.884 38.7042C159.756 37.8602 161.199 38.2064 161.84 36.905C159.895 37.4305 157.949 37.9591 155.97 38.4939C156.809 40.3179 158.403 40.8898 159.898 40.0613C158.242 43.0012 157.111 46.1328 156.328 49.5024C157.339 49.32 158.399 49.4529 158.754 48.2009C158.773 48.1391 158.899 48.0773 158.979 48.068C160.422 47.9258 161.865 47.7928 163.443 47.6445C163.292 48.0062 163.203 48.2164 162.996 48.7079C164.3 48.5719 165.45 48.4513 166.6 48.3307C166.69 48.4266 166.776 48.5224 166.866 48.6182L164.899 49.6508C165.019 49.7868 165.139 49.9197 165.256 50.0557C165.706 50.1732 166.153 50.2907 166.604 50.4113C163.083 51.8178 159.312 51.5396 155.649 52.2445C155.304 54.0529 154.965 55.8428 154.623 57.6297C154.66 57.6544 154.694 57.6791 154.731 57.7038C154.897 57.4442 155.06 57.1845 155.227 56.9248C155.372 57.0052 155.517 57.0887 155.662 57.169C155.073 58.928 154.481 60.684 153.836 62.6068H153.833Z" fill="white"/>
<path d="M103.326 39.9348C103.154 40.38 103.064 40.6057 102.926 40.9643C104.532 39.7215 105.987 38.5159 107.519 37.4185C111.16 34.8155 114.891 35.1494 117.604 37.3844C120.003 39.3598 121.421 41.9412 121.535 45.15C121.661 48.7051 121.208 52.1706 120.015 55.5247C119.895 55.8617 119.707 56.1708 119.534 56.5233C119.028 56.0503 119.05 56.0564 119.439 54.8848C119.608 54.3778 119.66 53.8307 119.63 53.2649C116.941 62.1125 112.967 70.0883 105.17 75.6466C105.41 75.2756 105.629 74.8923 105.898 74.543C106.178 74.1782 106.502 73.8474 106.915 73.3775C105.623 74.2338 104.526 75.0963 103.311 75.7424C97.4869 78.8586 93.4327 75.4395 92.0823 70.8859C90.9107 66.9382 91.2406 62.9904 92.2735 59.0644C93.7163 53.5741 95.8683 48.4022 99.1981 43.7774C100.259 42.3028 101.335 40.8035 103.323 39.9318L103.326 39.9348ZM110.923 58.3657C111.829 56.7489 112.307 55.1321 112.125 53.3731C111.913 51.3297 109.844 49.988 107.279 50.1859C102.932 50.5198 99.6081 53.37 98.7387 57.6547C98.5753 58.4523 98.3564 58.6563 97.601 58.3472C97.0368 60.4926 96.6021 62.6009 96.8333 64.7649C97.0584 66.8732 98.8127 68.5426 100.61 68.2767C101.615 68.1283 102.694 67.7141 103.502 67.1051C106.357 64.9535 108.275 62.0599 109.502 58.7181C110.035 57.2652 110.42 55.7597 110.908 54.1614C111.53 55.5804 110.855 56.9035 110.923 58.3657Z" fill="white"/>
<path d="M102.001 28.4317C101.51 27.8413 101.082 27.325 100.644 26.7933C102.626 25.7855 111.352 24.7004 113.682 25.2538C112.819 25.4022 112.218 25.5073 111.398 25.6495C111.937 25.7329 112.277 25.8102 112.616 25.8319C114.916 25.9803 117.216 26.1194 119.516 26.2554C119.784 26.2708 120.191 26.4161 120.052 25.8504C120.052 25.838 120.256 25.7298 120.357 25.7422C122.047 25.9586 123.736 26.175 125.42 26.4285C125.697 26.4718 125.95 26.6913 126.388 26.92C125.864 27.2292 125.506 27.4425 125.114 27.6712C125.238 28.5214 125.617 29.4488 124.652 30.1011C124.791 31.6437 123.533 31.3438 122.7 31.5602C121.106 31.9745 119.506 32.3547 117.903 32.738C117.579 32.8153 117.246 32.8493 116.92 32.9019C116.889 32.8091 116.858 32.7133 116.827 32.6206C118.073 32.1816 119.318 31.7457 120.561 31.3067L120.524 31.1491C117.539 31.656 114.543 32.0981 111.574 32.6886C108.657 33.2698 105.771 34.0024 102.87 34.6702C102.836 34.562 102.802 34.4568 102.768 34.3486C102.959 34.2312 103.197 34.1539 103.329 33.99C103.493 33.7891 103.721 33.4583 103.656 33.2852C103.262 32.2589 103.702 31.6901 104.597 31.3036C104.704 31.2573 104.791 31.1552 105.102 30.911C104.187 30.5926 103.437 30.234 102.651 30.0856C101.532 29.8754 101.165 29.3499 102.004 28.4348L102.001 28.4317Z" fill="white"/>
<path d="M13.8984 105.45C13.7535 105.163 13.6332 104.925 13.4606 104.588C12.6405 105.587 12.5819 106.628 12.8255 107.741C12.5233 106.579 12.1965 105.435 12.5202 104.223C12.6466 103.747 12.5387 103.197 12.4771 102.684C12.3815 101.855 12.4062 101.089 12.9149 100.356C13.1122 100.071 13.0166 99.5985 13.0536 99.2183C13.6671 99.549 13.9169 100.09 13.6086 100.795C13.2355 101.648 13.4236 102.47 13.6363 103.311C13.6579 103.398 13.6795 103.509 13.7442 103.562C14.4626 104.13 14.2375 104.758 13.8984 105.454V105.45Z" fill="white"/>
</g>
<defs>
<clipPath id="clip0_237_22224">
<rect width="223.795" height="150.483" fill="white"/>
</clipPath>
</defs>
</svg>
