<svg width="22" height="22" viewBox="0 0 22 22" fill="none" xmlns="http://www.w3.org/2000/svg">
<g opacity="0.5" clip-path="url(#clip0_2373_1894)">
<mask id="mask0_2373_1894" style="mask-type:luminance" maskUnits="userSpaceOnUse" x="0" y="0" width="22" height="22">
<path d="M16.5 20.5263C14.1729 21.8698 11.4344 22.3152 8.80145 21.7781C6.16851 21.241 3.82324 19.7587 2.20825 17.611C0.593279 15.4632 -0.17968 12.7987 0.0352655 10.1201C0.250211 7.44156 1.43819 4.93434 3.37499 3.07165C5.31179 1.20895 7.86343 0.119627 10.5483 0.00928457C13.2332 -0.101057 15.8657 0.775208 17.9488 2.4727C20.0319 4.17019 21.4216 6.57148 21.8556 9.22336C22.2897 11.8752 21.7379 14.5942 20.3046 16.8673L16.5828 14.5204C17.4428 13.1566 17.7738 11.5251 17.5134 9.93406C17.253 8.3429 16.4191 6.90211 15.1693 5.88362C13.9194 4.86513 12.3399 4.33937 10.729 4.40557C9.11807 4.47178 7.58708 5.12537 6.425 6.24299C5.26293 7.3606 4.55013 8.86495 4.42117 10.4721C4.2922 12.0793 4.75598 13.678 5.72496 14.9666C6.69395 16.2552 8.10112 17.1446 9.68088 17.4669C11.2607 17.7891 12.9037 17.522 14.3 16.7158L16.5 20.5263Z" fill="white"/>
</mask>
<g mask="url(#mask0_2373_1894)">
<path d="M16.5 20.5263C14.1729 21.8698 11.4344 22.3152 8.80145 21.7781C6.16851 21.241 3.82324 19.7587 2.20825 17.611C0.593279 15.4632 -0.17968 12.7987 0.0352655 10.1201C0.250211 7.44156 1.43819 4.93434 3.37499 3.07165C5.31179 1.20895 7.86343 0.119627 10.5483 0.00928457C13.2332 -0.101057 15.8657 0.775208 17.9488 2.4727C20.0319 4.17019 21.4216 6.57148 21.8556 9.22336C22.2897 11.8752 21.7379 14.5942 20.3046 16.8673L16.5828 14.5204C17.4428 13.1566 17.7738 11.5251 17.5134 9.93406C17.253 8.3429 16.4191 6.90211 15.1693 5.88362C13.9194 4.86513 12.3399 4.33937 10.729 4.40557C9.11807 4.47177 7.58708 5.12537 6.425 6.24299C5.26292 7.3606 4.55013 8.86495 4.42117 10.4721C4.2922 12.0793 4.75598 13.678 5.72496 14.9666C6.69395 16.2552 8.10112 17.1446 9.68088 17.4669C11.2607 17.7891 12.9037 17.522 14.3 16.7158L16.5 20.5263Z" stroke="white" stroke-width="10"/>
</g>
<path d="M10.9997 15.304C13.3769 15.304 15.304 13.3769 15.304 10.9997C15.304 8.62243 13.3769 6.69531 10.9997 6.69531C8.62243 6.69531 6.69531 8.62243 6.69531 10.9997C6.69531 13.3769 8.62243 15.304 10.9997 15.304Z" fill="white"/>
</g>
<defs>
<clipPath id="clip0_2373_1894">
<rect width="22" height="22" fill="white"/>
</clipPath>
</defs>
</svg>
