<svg width="28" height="23" viewBox="0 0 28 23" fill="none" xmlns="http://www.w3.org/2000/svg">
<path opacity="0.5" d="M25.6129 0.203034C25.6129 0.203034 28.203 -0.792496 27.9872 1.62532C27.9153 2.6209 27.2677 6.1054 26.7641 9.87434L25.0373 21.039C25.0373 21.039 24.8934 22.6746 23.5983 22.959C22.3031 23.2435 20.3605 21.9635 20.0007 21.679C19.713 21.4657 14.6045 18.2656 12.8058 16.7011C12.3021 16.2745 11.7265 15.4211 12.8777 14.4255L20.4325 7.31433C21.2959 6.46099 22.1593 4.46982 18.5618 6.88763L8.48877 13.6433C8.48877 13.6433 7.33752 14.3544 5.17906 13.7144L0.502284 12.2922C0.502284 12.2922 -1.22453 11.2255 1.72543 10.1588C8.92048 6.81648 17.7704 3.40308 25.6129 0.203034Z" fill="white"/>
</svg>
