<svg width="28" height="22" viewBox="0 0 28 22" fill="none" xmlns="http://www.w3.org/2000/svg">
<g opacity="0.5" clip-path="url(#clip0_2373_1888)">
<path fill-rule="evenodd" clip-rule="evenodd" d="M8.806 21.9997C19.3718 21.9997 25.151 13.5346 25.151 6.1946C25.151 5.95363 25.151 5.71448 25.1342 5.47622C26.2584 4.69104 27.2286 3.71615 28 2.60067C26.9528 3.05012 25.8398 3.34486 24.7016 3.47482C25.9 2.78034 26.7974 1.68929 27.2272 0.401879C26.0988 1.04897 24.8654 1.50566 23.5788 1.75069C21.4032 -0.485702 17.7646 -0.594056 15.4504 1.50967C13.9594 2.86612 13.3252 4.88857 13.7886 6.81765C9.17 6.59293 4.8664 4.48383 1.9488 1.01418C0.4242 3.55245 1.204 6.7984 3.7282 8.42831C2.814 8.40258 1.9194 8.16458 1.12 7.73409V7.80459C1.1214 10.4485 3.0492 12.725 5.7288 13.2489C4.8832 13.4722 3.9956 13.5046 3.136 13.3435C3.8878 15.607 6.0452 17.1573 8.5022 17.202C6.468 18.748 3.955 19.5874 1.3678 19.5847C0.9114 19.5834 0.455 19.5576 0 19.5048C2.6278 21.1348 5.684 21.9997 8.806 21.9957" fill="white"/>
</g>
<defs>
<clipPath id="clip0_2373_1888">
<rect width="28" height="22" fill="white"/>
</clipPath>
</defs>
</svg>
